<?xml version="1.0" encoding="UTF-8"?>
<svg width="16px" height="16px" viewBox="0 0 16 16" version="1.1" xmlns="http://www.w3.org/2000/svg" xmlns:xlink="http://www.w3.org/1999/xlink">
    <g id="20250221评审" stroke="none" stroke-width="1" fill="none" fill-rule="evenodd">
        <g id="首页-组件" transform="translate(-17, -54)">
            <g id="组件" transform="translate(13, 54)">
                <g transform="translate(4, 0)">
                    <rect id="矩形" x="0" y="0" width="16" height="16"></rect>
                    <g id="编组" fill="currentColor" fill-rule="nonzero">
                        <path d="M12.4444445,16 L0.592592594,16 C0.265312742,16 0,15.7346873 0,15.4074075 L0,3.55555557 C0,3.22827571 0.265312742,2.96296297 0.592592594,2.96296297 L4.21925927,2.96296297 C4.17152683,2.76906229 4.14764645,2.57005916 4.14814816,2.37037038 C4.14814816,1.06125097 5.20939913,0 6.51851854,0 C7.82763795,0 8.88888892,1.06125097 8.88888892,2.37037038 C8.88939063,2.57005916 8.86551025,2.76906229 8.81777781,2.96296297 L12.4444445,2.96296297 C12.7717243,2.96296297 13.0370371,3.22827571 13.0370371,3.55555557 L13.0370371,7.18222224 C13.2309378,7.1344898 13.4299409,7.11060942 13.6296297,7.11111113 C14.9387491,7.11111116 16,8.17236212 16,9.48148151 C16,10.7906009 14.9387491,11.8518519 13.6296297,11.8518519 C13.4299409,11.8523536 13.2309378,11.8284732 13.0370371,11.7807408 L13.0370371,15.4074075 C13.0370371,15.7346873 12.7717243,16 12.4444445,16 Z M1.18518519,14.8148149 L11.8518519,14.8148149 L11.8518519,10.7970371 C11.8540535,10.5615639 11.992809,10.3488054 12.2074074,10.2518519 C12.4200538,10.1652086 12.6634305,10.2065367 12.8355556,10.3585186 C13.30908,10.7889182 14.0387536,10.7657203 14.4839827,10.3061115 C14.9292118,9.84650266 14.9292118,9.11646036 14.4839827,8.65685154 C14.0387536,8.19724272 13.30908,8.17404481 12.8355556,8.60444447 C12.6661072,8.7619371 12.4193463,8.8038399 12.2074074,8.71111114 C11.992809,8.61415765 11.8540535,8.40139913 11.8518519,8.16592595 L11.8518519,4.14814816 L7.8340741,4.14814816 C7.59860092,4.14594659 7.3858424,4.00719104 7.28888891,3.7925926 C7.19616015,3.58065376 7.23806295,3.33389287 7.39555558,3.16444445 C7.82595524,2.69092008 7.80275733,1.96124645 7.34314851,1.51601737 C6.88353969,1.0707883 6.15349739,1.0707883 5.69388857,1.51601737 C5.23427975,1.96124645 5.21108184,2.69092008 5.6414815,3.16444445 C5.79897413,3.33389287 5.84087692,3.58065376 5.74814817,3.7925926 C5.65119467,4.00719104 5.43843616,4.14594659 5.20296298,4.14814816 L1.18518519,4.14814816 L1.18518519,14.8148149 Z" id="形状"></path>
                    </g>
                </g>
            </g>
        </g>
    </g>
</svg>